<svg width="416" height="53" viewBox="0 0 416 53" fill="none" xmlns="http://www.w3.org/2000/svg">
<path d="M0.188867 13.6V3H30.9389V13.6H27.8889L25.8389 6.85H19.6389V34.1L24.2389 35.2V38H6.88887V35.2L11.4889 34.1V6.85H5.23887L3.18887 13.6H0.188867ZM44.317 38.75C42.417 38.75 40.6337 38.4167 38.967 37.75C37.3337 37.0833 35.917 36.1667 34.717 35C33.517 33.8333 32.567 32.4333 31.867 30.8C31.167 29.1667 30.817 27.3833 30.817 25.45C30.817 23.5167 31.167 21.75 31.867 20.15C32.567 18.5167 33.517 17.1167 34.717 15.95C35.917 14.7833 37.3337 13.8833 38.967 13.25C40.6337 12.5833 42.417 12.25 44.317 12.25C46.217 12.25 47.9837 12.5833 49.617 13.25C51.2503 13.8833 52.667 14.7833 53.867 15.95C55.1003 17.1167 56.0503 18.5167 56.717 20.15C57.417 21.75 57.767 23.5167 57.767 25.45C57.767 27.35 57.417 29.1167 56.717 30.75C56.0503 32.3833 55.1003 33.8 53.867 35C52.667 36.1667 51.2503 37.0833 49.617 37.75C47.9837 38.4167 46.217 38.75 44.317 38.75ZM38.867 25.45C38.867 28.5833 39.317 31.05 40.217 32.85C41.1503 34.6167 42.517 35.5 44.317 35.5C46.117 35.5 47.467 34.6167 48.367 32.85C49.3003 31.05 49.767 28.5833 49.767 25.45C49.767 22.35 49.3003 19.9167 48.367 18.15C47.467 16.3833 46.117 15.5 44.317 15.5C42.517 15.5 41.1503 16.3833 40.217 18.15C39.317 19.9167 38.867 22.35 38.867 25.45ZM60.1904 50.35L64.4404 49.35V17.55H60.1904V14.9L68.1904 13H72.1404V15.4C74.1738 13.3 76.6071 12.25 79.4404 12.25C80.8404 12.25 82.1571 12.5333 83.3904 13.1C84.6571 13.6333 85.7571 14.4333 86.6904 15.5C87.6238 16.5333 88.3571 17.8167 88.8904 19.35C89.4571 20.8833 89.7404 22.6167 89.7404 24.55C89.7404 26.8167 89.3404 28.8333 88.5404 30.6C87.7738 32.3667 86.7238 33.85 85.3904 35.05C84.0571 36.25 82.4904 37.1667 80.6904 37.8C78.9238 38.4333 77.0404 38.75 75.0404 38.75C73.7404 38.75 72.7738 38.65 72.1404 38.45V49.35L77.3904 50.35V53H60.1904V50.35ZM72.1404 35C72.9071 35.3333 73.7238 35.5 74.5904 35.5C76.7238 35.5 78.4571 34.6 79.7904 32.8C81.1238 30.9667 81.7904 28.2833 81.7904 24.75C81.7904 22.05 81.3238 20.05 80.3904 18.75C79.4571 17.45 78.1738 16.8 76.5404 16.8C75.8071 16.8 75.0071 16.9667 74.1404 17.3C73.3071 17.6333 72.6404 18.05 72.1404 18.55V35ZM104.254 38V35.2L108.854 34.1V6.9L104.254 5.8V3H119.254C125.321 3 129.954 4.61666 133.154 7.85C136.388 11.05 138.004 15.2667 138.004 20.5C138.004 26.0667 136.304 30.3833 132.904 33.45C129.504 36.4833 124.954 38 119.254 38H104.254ZM117.004 34.15H118.504C122.138 34.15 124.904 32.9667 126.804 30.6C128.738 28.2333 129.704 24.8667 129.704 20.5C129.704 16.1 128.738 12.7333 126.804 10.4C124.904 8.03333 122.138 6.85 118.504 6.85H117.004V34.15ZM141.903 25.2C141.903 21.2667 143.003 18.1333 145.203 15.8C147.437 13.4333 150.453 12.25 154.253 12.25C158.12 12.25 161.037 13.5667 163.003 16.2C165.003 18.8333 166.003 22.0833 166.003 25.95H149.603C149.837 28.4167 150.72 30.55 152.253 32.35C153.787 34.1167 155.753 35 158.153 35C159.953 35 161.887 34.6167 163.953 33.85L165.003 36.7C161.903 38.0667 158.87 38.75 155.903 38.75C151.603 38.75 148.187 37.5 145.653 35C143.153 32.4667 141.903 29.2 141.903 25.2ZM149.603 22.85L158.053 22.3C158.053 21.5 158.003 20.7667 157.903 20.1C157.803 19.4 157.52 18.5667 157.053 17.6C156.22 16.2 155.237 15.5 154.103 15.5C152.77 15.5 151.67 16.1833 150.803 17.55C150.303 18.3833 149.97 19.3 149.803 20.3C149.637 21.3 149.57 22.15 149.603 22.85ZM169.499 37.6V30.45H172.299L174.099 35.4C175.299 35.4667 176.249 35.5 176.949 35.5C180.849 35.5 182.799 34.65 182.799 32.95C182.799 32.25 182.449 31.65 181.749 31.15C181.049 30.6167 180.383 30.2 179.749 29.9C179.116 29.6 177.916 29.0667 176.149 28.3C173.849 27.3 172.166 26.1667 171.099 24.9C170.066 23.6 169.549 21.9333 169.549 19.9C169.549 17.4 170.549 15.5 172.549 14.2C174.583 12.9 177.233 12.25 180.499 12.25C183.466 12.25 186.016 12.5667 188.149 13.2V20H185.549L183.999 15.6C182.999 15.4333 181.999 15.35 180.999 15.35C177.799 15.35 176.199 16.1333 176.199 17.7C176.199 18.1 176.349 18.5167 176.649 18.95C176.949 19.3833 177.483 19.8167 178.249 20.25C179.049 20.6833 180.299 21.2667 181.999 22C185.033 23.3667 187.083 24.7 188.149 26C189.216 27.2667 189.749 28.9833 189.749 31.15C189.749 33.6167 188.733 35.5 186.699 36.8C184.666 38.1 181.966 38.75 178.599 38.75C175.433 38.75 172.399 38.3667 169.499 37.6ZM192.872 16.5V14.5L201.372 8.45H203.222V13.25L209.422 13V16.5H203.222V30.8C203.222 32.4333 203.405 33.5833 203.772 34.25C204.138 34.9167 204.888 35.25 206.022 35.25C206.855 35.25 207.972 34.95 209.372 34.35L210.172 37.15C208.172 38.2167 206.055 38.75 203.822 38.75C198.288 38.75 195.522 36.1833 195.522 31.05V16.5H192.872ZM211.868 38V35.35L216.118 34.35V17.55H211.868V14.9L219.868 13H223.818V34.35L228.068 35.35V38H211.868ZM215.318 5.3C215.318 4 215.768 2.91667 216.668 2.05C217.568 1.15 218.668 0.699997 219.968 0.699997C221.301 0.699997 222.401 1.15 223.268 2.05C224.168 2.91667 224.618 4 224.618 5.3C224.618 6.63333 224.168 7.75 223.268 8.65C222.401 9.55 221.301 10 219.968 10C218.668 10 217.568 9.55 216.668 8.65C215.768 7.75 215.318 6.63333 215.318 5.3ZM230.325 38V35.35L234.575 34.35V17.55H230.325V14.9L238.325 13H242.275V15.45C244.309 13.3167 246.825 12.25 249.825 12.25C251.125 12.25 252.292 12.45 253.325 12.85C254.392 13.2167 255.275 13.75 255.975 14.45C256.709 15.15 257.275 15.9833 257.675 16.95C258.075 17.9167 258.275 18.9667 258.275 20.1V34.35L262.525 35.35V38H247.325V35.35L250.575 34.35V21.5C250.575 20.4667 250.509 19.6333 250.375 19C250.275 18.3667 250.092 17.8833 249.825 17.55C249.559 17.1833 249.192 16.95 248.725 16.85C248.292 16.7167 247.742 16.65 247.075 16.65C245.809 16.65 244.209 17.3833 242.275 18.85V34.35L245.525 35.35V38H230.325ZM264.358 31.8C264.358 28.9 265.542 26.7 267.908 25.2C270.308 23.6667 274.175 22.9 279.508 22.9V21.4C279.508 20.4 279.492 19.6833 279.458 19.25C279.458 18.7833 279.392 18.2333 279.258 17.6C279.125 16.9667 278.925 16.5167 278.658 16.25C278.425 15.9833 278.058 15.75 277.558 15.55C277.058 15.3167 276.442 15.2 275.708 15.2L269.358 20.7C267.092 19.4 265.958 17.3833 265.958 14.65L267.458 14C268.092 13.7333 269.325 13.3833 271.158 12.95C272.992 12.4833 274.775 12.25 276.508 12.25C283.675 12.25 287.258 15.1167 287.258 20.85V34.25H291.158V36.4C290.992 36.5667 290.758 36.7833 290.458 37.05C290.158 37.3167 289.508 37.6667 288.508 38.1C287.508 38.5333 286.475 38.75 285.408 38.75C282.875 38.75 280.992 37.9 279.758 36.2C277.525 37.9 275.092 38.75 272.458 38.75C270.158 38.75 268.225 38.1667 266.658 37C265.125 35.8333 264.358 34.1 264.358 31.8ZM272.408 31.35C272.408 32.3167 272.725 33.0833 273.358 33.65C274.025 34.2167 274.825 34.5 275.758 34.5C277.258 34.5 278.508 33.95 279.508 32.85V26C277.642 26 275.992 26.5 274.558 27.5C273.125 28.4667 272.408 29.75 272.408 31.35ZM292.872 16.5V14.5L301.372 8.45H303.222V13.25L309.422 13V16.5H303.222V30.8C303.222 32.4333 303.405 33.5833 303.772 34.25C304.138 34.9167 304.888 35.25 306.022 35.25C306.855 35.25 307.972 34.95 309.372 34.35L310.172 37.15C308.172 38.2167 306.055 38.75 303.822 38.75C298.288 38.75 295.522 36.1833 295.522 31.05V16.5H292.872ZM311.868 38V35.35L316.118 34.35V17.55H311.868V14.9L319.868 13H323.818V34.35L328.068 35.35V38H311.868ZM315.318 5.3C315.318 4 315.768 2.91667 316.668 2.05C317.568 1.15 318.668 0.699997 319.968 0.699997C321.301 0.699997 322.401 1.15 323.268 2.05C324.168 2.91667 324.618 4 324.618 5.3C324.618 6.63333 324.168 7.75 323.268 8.65C322.401 9.55 321.301 10 319.968 10C318.668 10 317.568 9.55 316.668 8.65C315.768 7.75 315.318 6.63333 315.318 5.3ZM343.682 38.75C341.782 38.75 339.999 38.4167 338.332 37.75C336.699 37.0833 335.282 36.1667 334.082 35C332.882 33.8333 331.932 32.4333 331.232 30.8C330.532 29.1667 330.182 27.3833 330.182 25.45C330.182 23.5167 330.532 21.75 331.232 20.15C331.932 18.5167 332.882 17.1167 334.082 15.95C335.282 14.7833 336.699 13.8833 338.332 13.25C339.999 12.5833 341.782 12.25 343.682 12.25C345.582 12.25 347.349 12.5833 348.982 13.25C350.616 13.8833 352.032 14.7833 353.232 15.95C354.466 17.1167 355.416 18.5167 356.082 20.15C356.782 21.75 357.132 23.5167 357.132 25.45C357.132 27.35 356.782 29.1167 356.082 30.75C355.416 32.3833 354.466 33.8 353.232 35C352.032 36.1667 350.616 37.0833 348.982 37.75C347.349 38.4167 345.582 38.75 343.682 38.75ZM338.232 25.45C338.232 28.5833 338.682 31.05 339.582 32.85C340.516 34.6167 341.882 35.5 343.682 35.5C345.482 35.5 346.832 34.6167 347.732 32.85C348.666 31.05 349.132 28.5833 349.132 25.45C349.132 22.35 348.666 19.9167 347.732 18.15C346.832 16.3833 345.482 15.5 343.682 15.5C341.882 15.5 340.516 16.3833 339.582 18.15C338.682 19.9167 338.232 22.35 338.232 25.45ZM360.306 38V35.35L364.556 34.35V17.55H360.306V14.9L368.306 13H372.256V15.45C374.289 13.3167 376.806 12.25 379.806 12.25C381.106 12.25 382.272 12.45 383.306 12.85C384.372 13.2167 385.256 13.75 385.956 14.45C386.689 15.15 387.256 15.9833 387.656 16.95C388.056 17.9167 388.256 18.9667 388.256 20.1V34.35L392.506 35.35V38H377.306V35.35L380.556 34.35V21.5C380.556 20.4667 380.489 19.6333 380.356 19C380.256 18.3667 380.072 17.8833 379.806 17.55C379.539 17.1833 379.172 16.95 378.706 16.85C378.272 16.7167 377.722 16.65 377.056 16.65C375.789 16.65 374.189 17.3833 372.256 18.85V34.35L375.506 35.35V38H360.306ZM394.939 37.6V30.45H397.739L399.539 35.4C400.739 35.4667 401.689 35.5 402.389 35.5C406.289 35.5 408.239 34.65 408.239 32.95C408.239 32.25 407.889 31.65 407.189 31.15C406.489 30.6167 405.822 30.2 405.189 29.9C404.556 29.6 403.356 29.0667 401.589 28.3C399.289 27.3 397.606 26.1667 396.539 24.9C395.506 23.6 394.989 21.9333 394.989 19.9C394.989 17.4 395.989 15.5 397.989 14.2C400.022 12.9 402.672 12.25 405.939 12.25C408.906 12.25 411.456 12.5667 413.589 13.2V20H410.989L409.439 15.6C408.439 15.4333 407.439 15.35 406.439 15.35C403.239 15.35 401.639 16.1333 401.639 17.7C401.639 18.1 401.789 18.5167 402.089 18.95C402.389 19.3833 402.922 19.8167 403.689 20.25C404.489 20.6833 405.739 21.2667 407.439 22C410.472 23.3667 412.522 24.7 413.589 26C414.656 27.2667 415.189 28.9833 415.189 31.15C415.189 33.6167 414.172 35.5 412.139 36.8C410.106 38.1 407.406 38.75 404.039 38.75C400.872 38.75 397.839 38.3667 394.939 37.6Z" fill="#14183E"/>
</svg>
