<svg width="497" height="120" viewBox="0 0 497 120" fill="none" xmlns="http://www.w3.org/2000/svg">
<path d="M0.65 40V37.2L5.25 36.1V8.9L0.65 7.8V5H15.95C19.85 5 22.95 5.68333 25.25 7.05C27.55 8.38333 28.7 10.5333 28.7 13.5C28.7 15.3 28.05 16.9333 26.75 18.4C25.45 19.8333 23.9167 20.7667 22.15 21.2V21.35C24.9167 21.85 27.1167 22.8833 28.75 24.45C30.3833 25.9833 31.2 27.8833 31.2 30.15C31.2 33.1167 29.9333 35.5 27.4 37.3C24.8667 39.1 21.6667 40 17.8 40H0.65ZM13.4 36.45H15.15C20.3167 36.45 22.9 34.35 22.9 30.15C22.9 28.1167 22.2667 26.5333 21 25.4C19.7667 24.2667 17.9 23.7 15.4 23.7H13.4V36.45ZM13.4 20.05H14.1C15.8667 20.05 17.35 19.5167 18.55 18.45C19.7833 17.3833 20.4 15.8833 20.4 13.95C20.4 10.35 18.2 8.55 13.8 8.55H13.4V20.05ZM47.9391 40.75C46.0391 40.75 44.2557 40.4167 42.5891 39.75C40.9557 39.0833 39.5391 38.1667 38.3391 37C37.1391 35.8333 36.1891 34.4333 35.4891 32.8C34.7891 31.1667 34.4391 29.3833 34.4391 27.45C34.4391 25.5167 34.7891 23.75 35.4891 22.15C36.1891 20.5167 37.1391 19.1167 38.3391 17.95C39.5391 16.7833 40.9557 15.8833 42.5891 15.25C44.2557 14.5833 46.0391 14.25 47.9391 14.25C49.8391 14.25 51.6057 14.5833 53.2391 15.25C54.8724 15.8833 56.2891 16.7833 57.4891 17.95C58.7224 19.1167 59.6724 20.5167 60.3391 22.15C61.0391 23.75 61.3891 25.5167 61.3891 27.45C61.3891 29.35 61.0391 31.1167 60.3391 32.75C59.6724 34.3833 58.7224 35.8 57.4891 37C56.2891 38.1667 54.8724 39.0833 53.2391 39.75C51.6057 40.4167 49.8391 40.75 47.9391 40.75ZM42.4891 27.45C42.4891 30.5833 42.9391 33.05 43.8391 34.85C44.7724 36.6167 46.1391 37.5 47.9391 37.5C49.7391 37.5 51.0891 36.6167 51.9891 34.85C52.9224 33.05 53.3891 30.5833 53.3891 27.45C53.3891 24.35 52.9224 21.9167 51.9891 20.15C51.0891 18.3833 49.7391 17.5 47.9391 17.5C46.1391 17.5 44.7724 18.3833 43.8391 20.15C42.9391 21.9167 42.4891 24.35 42.4891 27.45ZM78.2125 40.75C76.3125 40.75 74.5292 40.4167 72.8625 39.75C71.2292 39.0833 69.8125 38.1667 68.6125 37C67.4125 35.8333 66.4625 34.4333 65.7625 32.8C65.0625 31.1667 64.7125 29.3833 64.7125 27.45C64.7125 25.5167 65.0625 23.75 65.7625 22.15C66.4625 20.5167 67.4125 19.1167 68.6125 17.95C69.8125 16.7833 71.2292 15.8833 72.8625 15.25C74.5292 14.5833 76.3125 14.25 78.2125 14.25C80.1125 14.25 81.8792 14.5833 83.5125 15.25C85.1458 15.8833 86.5625 16.7833 87.7625 17.95C88.9958 19.1167 89.9458 20.5167 90.6125 22.15C91.3125 23.75 91.6625 25.5167 91.6625 27.45C91.6625 29.35 91.3125 31.1167 90.6125 32.75C89.9458 34.3833 88.9958 35.8 87.7625 37C86.5625 38.1667 85.1458 39.0833 83.5125 39.75C81.8792 40.4167 80.1125 40.75 78.2125 40.75ZM72.7625 27.45C72.7625 30.5833 73.2125 33.05 74.1125 34.85C75.0458 36.6167 76.4125 37.5 78.2125 37.5C80.0125 37.5 81.3625 36.6167 82.2625 34.85C83.1958 33.05 83.6625 30.5833 83.6625 27.45C83.6625 24.35 83.1958 21.9167 82.2625 20.15C81.3625 18.3833 80.0125 17.5 78.2125 17.5C76.4125 17.5 75.0458 18.3833 74.1125 20.15C73.2125 21.9167 72.7625 24.35 72.7625 27.45ZM93.793 40V37.35L98.043 36.35V4.55H93.793V1.9L101.793 -5.96046e-07H105.743V36.35L108.993 37.35V40H93.793ZM106.643 27.95L115.443 18.4L112.443 17.65V15H124.193V17.65L119.643 18.6L113.893 24.95L120.943 36.4L124.943 37.35V40H113.943L106.643 27.95ZM136.05 7.8V5H152.45V7.8L149.2 8.45L156.35 18.95L162.75 8.8L159.05 7.8V5H171.8V7.8L167.2 8.9L158.2 23.2V36.1L162.8 37.2V40H145.45V37.2L150.05 36.1V23.15L140.1 8.8L136.05 7.8ZM181.875 40.75C179.975 40.75 178.191 40.4167 176.525 39.75C174.891 39.0833 173.475 38.1667 172.275 37C171.075 35.8333 170.125 34.4333 169.425 32.8C168.725 31.1667 168.375 29.3833 168.375 27.45C168.375 25.5167 168.725 23.75 169.425 22.15C170.125 20.5167 171.075 19.1167 172.275 17.95C173.475 16.7833 174.891 15.8833 176.525 15.25C178.191 14.5833 179.975 14.25 181.875 14.25C183.775 14.25 185.541 14.5833 187.175 15.25C188.808 15.8833 190.225 16.7833 191.425 17.95C192.658 19.1167 193.608 20.5167 194.275 22.15C194.975 23.75 195.325 25.5167 195.325 27.45C195.325 29.35 194.975 31.1167 194.275 32.75C193.608 34.3833 192.658 35.8 191.425 37C190.225 38.1667 188.808 39.0833 187.175 39.75C185.541 40.4167 183.775 40.75 181.875 40.75ZM176.425 27.45C176.425 30.5833 176.875 33.05 177.775 34.85C178.708 36.6167 180.075 37.5 181.875 37.5C183.675 37.5 185.025 36.6167 185.925 34.85C186.858 33.05 187.325 30.5833 187.325 27.45C187.325 24.35 186.858 21.9167 185.925 20.15C185.025 18.3833 183.675 17.5 181.875 17.5C180.075 17.5 178.708 18.3833 177.775 20.15C176.875 21.9167 176.425 24.35 176.425 27.45ZM197.253 17.65V15H209.203V32.25C209.203 33.95 209.403 35.1333 209.803 35.8C210.236 36.4333 211.086 36.75 212.353 36.75C213.319 36.75 214.319 36.5 215.353 36C216.386 35.5 217.219 34.8333 217.853 34V18.65L214.603 17.65V15H225.603V36.25H229.503V38.4C228.769 38.9 228.169 39.2667 227.703 39.5C227.269 39.7 226.769 39.9 226.203 40.1C225.669 40.3333 225.103 40.5 224.503 40.6C223.936 40.7 223.403 40.75 222.903 40.75C220.503 40.75 218.819 39.6667 217.853 37.5C215.486 39.6667 212.586 40.75 209.153 40.75C204.053 40.75 201.503 38.1333 201.503 32.9V18.65L197.253 17.65ZM231.652 40V37.35L235.902 36.35V19.55H231.652V16.9L239.652 15H243.602V18C246.102 15.5 249.069 14.25 252.502 14.25C252.702 14.8833 252.802 15.5833 252.802 16.35C252.802 17.8833 252.636 19.3167 252.302 20.65L246.002 19.6C245.202 19.9667 244.402 20.5 243.602 21.2V36.35L248.852 37.35V40H231.652ZM266.275 40V37.2L270.875 36.1V8.9L266.275 7.8V5H274.875L296.325 28.5V8.9L291.725 7.8V5H305.075V7.8L300.475 8.9V40H295.625L274.875 17.3V36.1L279.475 37.2V40H266.275ZM306.805 27.2C306.805 23.2667 307.905 20.1333 310.105 17.8C312.338 15.4333 315.355 14.25 319.155 14.25C323.021 14.25 325.938 15.5667 327.905 18.2C329.905 20.8333 330.905 24.0833 330.905 27.95H314.505C314.738 30.4167 315.621 32.55 317.155 34.35C318.688 36.1167 320.655 37 323.055 37C324.855 37 326.788 36.6167 328.855 35.85L329.905 38.7C326.805 40.0667 323.771 40.75 320.805 40.75C316.505 40.75 313.088 39.5 310.555 37C308.055 34.4667 306.805 31.2 306.805 27.2ZM314.505 24.85L322.955 24.3C322.955 23.5 322.905 22.7667 322.805 22.1C322.705 21.4 322.421 20.5667 321.955 19.6C321.121 18.2 320.138 17.5 319.005 17.5C317.671 17.5 316.571 18.1833 315.705 19.55C315.205 20.3833 314.871 21.3 314.705 22.3C314.538 23.3 314.471 24.15 314.505 24.85ZM331.921 40V37.35L336.271 36.5L342.921 28.6L336.521 18.5L332.571 17.65V15H348.321V17.65L345.721 18.15L348.971 23.2L352.971 18.45L350.221 17.65V15H361.421V17.65L357.071 18.6L350.771 26.05L357.471 36.6L361.571 37.35V40H345.421V37.35L348.121 36.95L344.721 31.45L340.321 36.65L342.971 37.35V40H331.921ZM363.632 18.5V16.5L372.132 10.45H373.982V15.25L380.182 15V18.5H373.982V32.8C373.982 34.4333 374.166 35.5833 374.532 36.25C374.899 36.9167 375.649 37.25 376.782 37.25C377.616 37.25 378.732 36.95 380.132 36.35L380.932 39.15C378.932 40.2167 376.816 40.75 374.582 40.75C369.049 40.75 366.282 38.1833 366.282 33.05V18.5H363.632ZM393.362 15.6V5H424.112V15.6H421.062L419.012 8.85H412.812V36.1L417.412 37.2V40H400.062V37.2L404.662 36.1V8.85H398.412L396.362 15.6H393.362ZM426.379 40V37.35L430.629 36.35V19.55H426.379V16.9L434.379 15H438.329V18C440.829 15.5 443.796 14.25 447.229 14.25C447.429 14.8833 447.529 15.5833 447.529 16.35C447.529 17.8833 447.362 19.3167 447.029 20.65L440.729 19.6C439.929 19.9667 439.129 20.5 438.329 21.2V36.35L443.579 37.35V40H426.379ZM449.719 40V37.35L453.969 36.35V19.55H449.719V16.9L457.719 15H461.669V36.35L465.919 37.35V40H449.719ZM453.169 7.3C453.169 6 453.619 4.91667 454.519 4.05C455.419 3.15 456.519 2.7 457.819 2.7C459.152 2.7 460.252 3.15 461.119 4.05C462.019 4.91667 462.469 6 462.469 7.3C462.469 8.63333 462.019 9.75 461.119 10.65C460.252 11.55 459.152 12 457.819 12C456.519 12 455.419 11.55 454.519 10.65C453.619 9.75 453.169 8.63333 453.169 7.3ZM467.426 52.35L471.676 51.35V19.55H467.426V16.9L475.426 15H479.376V17.4C481.409 15.3 483.842 14.25 486.676 14.25C488.076 14.25 489.392 14.5333 490.626 15.1C491.892 15.6333 492.992 16.4333 493.926 17.5C494.859 18.5333 495.592 19.8167 496.126 21.35C496.692 22.8833 496.976 24.6167 496.976 26.55C496.976 28.8167 496.576 30.8333 495.776 32.6C495.009 34.3667 493.959 35.85 492.626 37.05C491.292 38.25 489.726 39.1667 487.926 39.8C486.159 40.4333 484.276 40.75 482.276 40.75C480.976 40.75 480.009 40.65 479.376 40.45V51.35L484.626 52.35V55H467.426V52.35ZM479.376 37C480.142 37.3333 480.959 37.5 481.826 37.5C483.959 37.5 485.692 36.6 487.026 34.8C488.359 32.9667 489.026 30.2833 489.026 26.75C489.026 24.05 488.559 22.05 487.626 20.75C486.692 19.45 485.409 18.8 483.776 18.8C483.042 18.8 482.242 18.9667 481.376 19.3C480.542 19.6333 479.876 20.05 479.376 20.55V37ZM0.65 105V102.2L5.25 101.1V73.9L0.65 72.8V70H18V72.8L13.4 73.9V101.1L18 102.2V105H0.65ZM21.1543 105V102.35L25.4043 101.35V84.55H21.1543V81.9L29.1543 80H33.1043V82.45C35.1376 80.3167 37.6543 79.25 40.6543 79.25C41.9543 79.25 43.121 79.45 44.1543 79.85C45.221 80.2167 46.1043 80.75 46.8043 81.45C47.5376 82.15 48.1043 82.9833 48.5043 83.95C48.9043 84.9167 49.1043 85.9667 49.1043 87.1V101.35L53.3543 102.35V105H38.1543V102.35L41.4043 101.35V88.5C41.4043 87.4667 41.3376 86.6333 41.2043 86C41.1043 85.3667 40.921 84.8833 40.6543 84.55C40.3876 84.1833 40.021 83.95 39.5543 83.85C39.121 83.7167 38.571 83.65 37.9043 83.65C36.6376 83.65 35.0376 84.3833 33.1043 85.85V101.35L36.3543 102.35V105H21.1543ZM65.8703 103.7L66.9203 100.75C69.487 101.683 71.837 102.15 73.9703 102.15C76.3036 102.15 78.1536 101.517 79.5203 100.25C80.887 98.95 81.5703 97.35 81.5703 95.45C81.5703 93.1833 80.7536 91.4167 79.1203 90.15C77.5203 88.8833 75.3703 88.25 72.6703 88.25V85C74.6703 85 76.3536 84.3333 77.7203 83C79.087 81.6667 79.7703 79.9 79.7703 77.7C79.7703 76.0667 79.3036 74.7333 78.3703 73.7C77.4703 72.6333 76.5203 72.1 75.5203 72.1L69.9203 77.7C69.3536 77.3 68.787 76.4333 68.2203 75.1C67.6536 73.7333 67.337 72.5833 67.2703 71.65C67.5703 71.4833 67.987 71.2667 68.5203 71C69.0536 70.7333 70.137 70.3833 71.7703 69.95C73.437 69.4833 75.1203 69.25 76.8203 69.25C80.7203 69.25 83.5703 70 85.3703 71.5C87.1703 72.9667 88.0703 74.9167 88.0703 77.35C88.0703 79.2833 87.3703 81.0333 85.9703 82.6C84.5703 84.1333 82.6036 85.2833 80.0703 86.05C83.237 86.55 85.6703 87.6333 87.3703 89.3C89.0703 90.9333 89.9203 92.95 89.9203 95.35C89.9203 98.7833 88.6203 101.383 86.0203 103.15C83.4203 104.883 80.087 105.75 76.0203 105.75C72.3536 105.75 68.9703 105.067 65.8703 103.7ZM104.898 105V102.2L109.498 101.1V73.9L104.898 72.8V70H131.448V80.25H128.498L126.498 73.85H117.648V85.45L126.948 84.6V89.55L117.648 88.8V101.15H126.598L129.998 94.2H132.948L131.448 105H104.898ZM136.242 98.8C136.242 95.9 137.426 93.7 139.792 92.2C142.192 90.6667 146.059 89.9 151.392 89.9V88.4C151.392 87.4 151.376 86.6833 151.342 86.25C151.342 85.7833 151.276 85.2333 151.142 84.6C151.009 83.9667 150.809 83.5167 150.542 83.25C150.309 82.9833 149.942 82.75 149.442 82.55C148.942 82.3167 148.326 82.2 147.592 82.2L141.242 87.7C138.976 86.4 137.842 84.3833 137.842 81.65L139.342 81C139.976 80.7333 141.209 80.3833 143.042 79.95C144.876 79.4833 146.659 79.25 148.392 79.25C155.559 79.25 159.142 82.1167 159.142 87.85V101.25H163.042V103.4C162.876 103.567 162.642 103.783 162.342 104.05C162.042 104.317 161.392 104.667 160.392 105.1C159.392 105.533 158.359 105.75 157.292 105.75C154.759 105.75 152.876 104.9 151.642 103.2C149.409 104.9 146.976 105.75 144.342 105.75C142.042 105.75 140.109 105.167 138.542 104C137.009 102.833 136.242 101.1 136.242 98.8ZM144.292 98.35C144.292 99.3167 144.609 100.083 145.242 100.65C145.909 101.217 146.709 101.5 147.642 101.5C149.142 101.5 150.392 100.95 151.392 99.85V93C149.526 93 147.876 93.5 146.442 94.5C145.009 95.4667 144.292 96.75 144.292 98.35ZM165.455 104.6V97.45H168.255L170.055 102.4C171.255 102.467 172.205 102.5 172.905 102.5C176.805 102.5 178.755 101.65 178.755 99.95C178.755 99.25 178.405 98.65 177.705 98.15C177.005 97.6167 176.339 97.2 175.705 96.9C175.072 96.6 173.872 96.0667 172.105 95.3C169.805 94.3 168.122 93.1667 167.055 91.9C166.022 90.6 165.505 88.9333 165.505 86.9C165.505 84.4 166.505 82.5 168.505 81.2C170.539 79.9 173.189 79.25 176.455 79.25C179.422 79.25 181.972 79.5667 184.105 80.2V87H181.505L179.955 82.6C178.955 82.4333 177.955 82.35 176.955 82.35C173.755 82.35 172.155 83.1333 172.155 84.7C172.155 85.1 172.305 85.5167 172.605 85.95C172.905 86.3833 173.439 86.8167 174.205 87.25C175.005 87.6833 176.255 88.2667 177.955 89C180.989 90.3667 183.039 91.7 184.105 93C185.172 94.2667 185.705 95.9833 185.705 98.15C185.705 100.617 184.689 102.5 182.655 103.8C180.622 105.1 177.922 105.75 174.555 105.75C171.389 105.75 168.355 105.367 165.455 104.6ZM187.178 82.65V80H202.628V82.65L199.328 83.25L205.778 96.1L210.478 83.6L206.678 82.65V80H218.278V82.65L214.128 83.8L200.178 119.95H199.278C198.278 119.95 197.328 119.733 196.428 119.3C195.561 118.867 194.944 118.333 194.578 117.7L201.828 106.15L190.928 83.7L187.178 82.65ZM231.675 103.4V94.2H234.475L237.025 101.2C238.425 101.7 240.175 101.95 242.275 101.95C244.541 101.95 246.491 101.55 248.125 100.75C249.791 99.95 250.625 98.7667 250.625 97.2C250.625 96.8333 250.575 96.4833 250.475 96.15C250.408 95.8167 250.275 95.5 250.075 95.2C249.875 94.9 249.675 94.6333 249.475 94.4C249.275 94.1333 248.975 93.8667 248.575 93.6C248.175 93.3 247.825 93.0667 247.525 92.9C247.225 92.7 246.775 92.45 246.175 92.15C245.608 91.85 244.591 91.35 243.125 90.65L241.325 89.8C238.025 88.2 235.658 86.5333 234.225 84.8C232.791 83.0333 232.075 80.8667 232.075 78.3C232.075 75.5667 233.208 73.3833 235.475 71.75C237.741 70.0833 240.675 69.25 244.275 69.25C248.308 69.25 251.941 69.7667 255.175 70.8V80H252.375L249.925 73.3C248.558 73 247.241 72.85 245.975 72.85C244.008 72.85 242.325 73.2 240.925 73.9C239.525 74.5667 238.825 75.55 238.825 76.85C238.825 78.0167 239.375 79 240.475 79.8C241.608 80.5667 243.608 81.5833 246.475 82.85L247.475 83.3C250.875 84.8333 253.375 86.5333 254.975 88.4C256.575 90.2667 257.375 92.5333 257.375 95.2C257.375 97.7 256.741 99.75 255.475 101.35C254.241 102.917 252.608 104.05 250.575 104.75C248.541 105.417 246.225 105.75 243.625 105.75C239.491 105.75 235.508 104.967 231.675 103.4ZM260.459 83.5V81.5L268.959 75.45H270.809V80.25L277.009 80V83.5H270.809V97.8C270.809 99.4333 270.992 100.583 271.359 101.25C271.725 101.917 272.475 102.25 273.609 102.25C274.442 102.25 275.559 101.95 276.959 101.35L277.759 104.15C275.759 105.217 273.642 105.75 271.409 105.75C265.875 105.75 263.109 103.183 263.109 98.05V83.5H260.459ZM279.705 92.2C279.705 88.2667 280.805 85.1333 283.005 82.8C285.238 80.4333 288.255 79.25 292.055 79.25C295.922 79.25 298.838 80.5667 300.805 83.2C302.805 85.8333 303.805 89.0833 303.805 92.95H287.405C287.638 95.4167 288.522 97.55 290.055 99.35C291.588 101.117 293.555 102 295.955 102C297.755 102 299.688 101.617 301.755 100.85L302.805 103.7C299.705 105.067 296.672 105.75 293.705 105.75C289.405 105.75 285.988 104.5 283.455 102C280.955 99.4667 279.705 96.2 279.705 92.2ZM287.405 89.85L295.855 89.3C295.855 88.5 295.805 87.7667 295.705 87.1C295.605 86.4 295.322 85.5667 294.855 84.6C294.022 83.2 293.038 82.5 291.905 82.5C290.572 82.5 289.472 83.1833 288.605 84.55C288.105 85.3833 287.772 86.3 287.605 87.3C287.438 88.3 287.372 89.15 287.405 89.85ZM305.951 117.35L310.201 116.35V84.55H305.951V81.9L313.951 80H317.901V82.4C319.935 80.3 322.368 79.25 325.201 79.25C326.601 79.25 327.918 79.5333 329.151 80.1C330.418 80.6333 331.518 81.4333 332.451 82.5C333.385 83.5333 334.118 84.8167 334.651 86.35C335.218 87.8833 335.501 89.6167 335.501 91.55C335.501 93.8167 335.101 95.8333 334.301 97.6C333.535 99.3667 332.485 100.85 331.151 102.05C329.818 103.25 328.251 104.167 326.451 104.8C324.685 105.433 322.801 105.75 320.801 105.75C319.501 105.75 318.535 105.65 317.901 105.45V116.35L323.151 117.35V120H305.951V117.35ZM317.901 102C318.668 102.333 319.485 102.5 320.351 102.5C322.485 102.5 324.218 101.6 325.551 99.8C326.885 97.9667 327.551 95.2833 327.551 91.75C327.551 89.05 327.085 87.05 326.151 85.75C325.218 84.45 323.935 83.8 322.301 83.8C321.568 83.8 320.768 83.9667 319.901 84.3C319.068 84.6333 318.401 85.05 317.901 85.55V102ZM339.332 104.6V97.45H342.132L343.932 102.4C345.132 102.467 346.082 102.5 346.782 102.5C350.682 102.5 352.632 101.65 352.632 99.95C352.632 99.25 352.282 98.65 351.582 98.15C350.882 97.6167 350.216 97.2 349.582 96.9C348.949 96.6 347.749 96.0667 345.982 95.3C343.682 94.3 341.999 93.1667 340.932 91.9C339.899 90.6 339.382 88.9333 339.382 86.9C339.382 84.4 340.382 82.5 342.382 81.2C344.416 79.9 347.066 79.25 350.332 79.25C353.299 79.25 355.849 79.5667 357.982 80.2V87H355.382L353.832 82.6C352.832 82.4333 351.832 82.35 350.832 82.35C347.632 82.35 346.032 83.1333 346.032 84.7C346.032 85.1 346.182 85.5167 346.482 85.95C346.782 86.3833 347.316 86.8167 348.082 87.25C348.882 87.6833 350.132 88.2667 351.832 89C354.866 90.3667 356.916 91.7 357.982 93C359.049 94.2667 359.582 95.9833 359.582 98.15C359.582 100.617 358.566 102.5 356.532 103.8C354.499 105.1 351.799 105.75 348.432 105.75C345.266 105.75 342.232 105.367 339.332 104.6Z" fill="#14183E"/>
</svg>
