<svg width="410" height="107" viewBox="0 0 410 107" fill="none" xmlns="http://www.w3.org/2000/svg">
<path d="M0.5 7.8V5H17.7V7.8L13.5 8.7L19.75 27L25.85 5H32.5L39.9 27.05L44.75 8.9L40.7 7.8V5H53.3V7.8L48.7 8.9L40.2 40.35H35.35L26.95 15.05L19.8 40.35H15.25L4.85 8.85L0.5 7.8ZM53.0684 40V37.35L57.3184 36.35V4.55H53.0684V1.9L61.0684 -5.96046e-07H65.0184V17.45C67.0517 15.3167 69.5684 14.25 72.5684 14.25C73.8684 14.25 75.035 14.45 76.0684 14.85C77.135 15.2167 78.0184 15.75 78.7184 16.45C79.4517 17.15 80.0184 17.9833 80.4184 18.95C80.8184 19.9167 81.0184 20.9667 81.0184 22.1V36.35L85.2684 37.35V40H70.0684V37.35L73.3184 36.35V23.5C73.3184 21.8333 73.1184 20.6167 72.7184 19.85C72.3517 19.05 71.535 18.65 70.2684 18.65C69.6017 18.65 68.8184 18.8167 67.9184 19.15C67.0184 19.4833 66.0517 20.05 65.0184 20.85V36.35L68.2684 37.35V40H53.0684ZM87.1191 33.8C87.1191 30.9 88.3025 28.7 90.6691 27.2C93.0691 25.6667 96.9358 24.9 102.269 24.9V23.4C102.269 22.4 102.252 21.6833 102.219 21.25C102.219 20.7833 102.152 20.2333 102.019 19.6C101.886 18.9667 101.686 18.5167 101.419 18.25C101.186 17.9833 100.819 17.75 100.319 17.55C99.8191 17.3167 99.2025 17.2 98.4691 17.2L92.1191 22.7C89.8525 21.4 88.7191 19.3833 88.7191 16.65L90.2191 16C90.8525 15.7333 92.0858 15.3833 93.9191 14.95C95.7525 14.4833 97.5358 14.25 99.2691 14.25C106.436 14.25 110.019 17.1167 110.019 22.85V36.25H113.919V38.4C113.752 38.5667 113.519 38.7833 113.219 39.05C112.919 39.3167 112.269 39.6667 111.269 40.1C110.269 40.5333 109.236 40.75 108.169 40.75C105.636 40.75 103.752 39.9 102.519 38.2C100.286 39.9 97.8525 40.75 95.2191 40.75C92.9191 40.75 90.9858 40.1667 89.4191 39C87.8858 37.8333 87.1191 36.1 87.1191 33.8ZM95.1691 33.35C95.1691 34.3167 95.4858 35.0833 96.1191 35.65C96.7858 36.2167 97.5858 36.5 98.5191 36.5C100.019 36.5 101.269 35.95 102.269 34.85V28C100.402 28 98.7525 28.5 97.3191 29.5C95.8858 30.4667 95.1691 31.75 95.1691 33.35ZM115.632 18.5V16.5L124.132 10.45H125.982V15.25L132.182 15V18.5H125.982V32.8C125.982 34.4333 126.166 35.5833 126.532 36.25C126.899 36.9167 127.649 37.25 128.782 37.25C129.616 37.25 130.732 36.95 132.132 36.35L132.932 39.15C130.932 40.2167 128.816 40.75 126.582 40.75C121.049 40.75 118.282 38.1833 118.282 33.05V18.5H115.632ZM145.912 40V37.2L150.512 36.1V8.9L145.912 7.8V5H160.062C164.895 5 168.645 5.85 171.312 7.55C173.978 9.21666 175.312 12.0167 175.312 15.95C175.312 17.95 174.878 19.7 174.012 21.2C173.178 22.6667 172.028 23.8333 170.562 24.7C169.095 25.5333 167.478 26.1667 165.712 26.6C163.945 27 162.028 27.2 159.962 27.2H158.662V36.1L164.762 37.2V40H145.912ZM158.662 23.55H159.712C161.745 23.55 163.462 22.9167 164.862 21.65C166.295 20.35 167.012 18.45 167.012 15.95C167.012 13.55 166.345 11.7333 165.012 10.5C163.712 9.26666 162.062 8.65 160.062 8.65H158.662V23.55ZM177.506 27.2C177.506 23.2667 178.606 20.1333 180.806 17.8C183.039 15.4333 186.056 14.25 189.856 14.25C193.723 14.25 196.639 15.5667 198.606 18.2C200.606 20.8333 201.606 24.0833 201.606 27.95H185.206C185.439 30.4167 186.323 32.55 187.856 34.35C189.389 36.1167 191.356 37 193.756 37C195.556 37 197.489 36.6167 199.556 35.85L200.606 38.7C197.506 40.0667 194.473 40.75 191.506 40.75C187.206 40.75 183.789 39.5 181.256 37C178.756 34.4667 177.506 31.2 177.506 27.2ZM185.206 24.85L193.656 24.3C193.656 23.5 193.606 22.7667 193.506 22.1C193.406 21.4 193.123 20.5667 192.656 19.6C191.823 18.2 190.839 17.5 189.706 17.5C188.373 17.5 187.273 18.1833 186.406 19.55C185.906 20.3833 185.573 21.3 185.406 22.3C185.239 23.3 185.173 24.15 185.206 24.85ZM218.152 40.75C216.252 40.75 214.469 40.4167 212.802 39.75C211.169 39.0833 209.752 38.1667 208.552 37C207.352 35.8333 206.402 34.4333 205.702 32.8C205.002 31.1667 204.652 29.3833 204.652 27.45C204.652 25.5167 205.002 23.75 205.702 22.15C206.402 20.5167 207.352 19.1167 208.552 17.95C209.752 16.7833 211.169 15.8833 212.802 15.25C214.469 14.5833 216.252 14.25 218.152 14.25C220.052 14.25 221.819 14.5833 223.452 15.25C225.085 15.8833 226.502 16.7833 227.702 17.95C228.935 19.1167 229.885 20.5167 230.552 22.15C231.252 23.75 231.602 25.5167 231.602 27.45C231.602 29.35 231.252 31.1167 230.552 32.75C229.885 34.3833 228.935 35.8 227.702 37C226.502 38.1667 225.085 39.0833 223.452 39.75C221.819 40.4167 220.052 40.75 218.152 40.75ZM212.702 27.45C212.702 30.5833 213.152 33.05 214.052 34.85C214.985 36.6167 216.352 37.5 218.152 37.5C219.952 37.5 221.302 36.6167 222.202 34.85C223.135 33.05 223.602 30.5833 223.602 27.45C223.602 24.35 223.135 21.9167 222.202 20.15C221.302 18.3833 219.952 17.5 218.152 17.5C216.352 17.5 214.985 18.3833 214.052 20.15C213.152 21.9167 212.702 24.35 212.702 27.45ZM234.025 52.35L238.275 51.35V19.55H234.025V16.9L242.025 15H245.975V17.4C248.009 15.3 250.442 14.25 253.275 14.25C254.675 14.25 255.992 14.5333 257.225 15.1C258.492 15.6333 259.592 16.4333 260.525 17.5C261.459 18.5333 262.192 19.8167 262.725 21.35C263.292 22.8833 263.575 24.6167 263.575 26.55C263.575 28.8167 263.175 30.8333 262.375 32.6C261.609 34.3667 260.559 35.85 259.225 37.05C257.892 38.25 256.325 39.1667 254.525 39.8C252.759 40.4333 250.875 40.75 248.875 40.75C247.575 40.75 246.609 40.65 245.975 40.45V51.35L251.225 52.35V55H234.025V52.35ZM245.975 37C246.742 37.3333 247.559 37.5 248.425 37.5C250.559 37.5 252.292 36.6 253.625 34.8C254.959 32.9667 255.625 30.2833 255.625 26.75C255.625 24.05 255.159 22.05 254.225 20.75C253.292 19.45 252.009 18.8 250.375 18.8C249.642 18.8 248.842 18.9667 247.975 19.3C247.142 19.6333 246.475 20.05 245.975 20.55V37ZM265.715 40V37.35L269.965 36.35V4.55H265.715V1.9L273.715 -5.96046e-07H277.665V36.35L281.915 37.35V40H265.715ZM284.098 27.2C284.098 23.2667 285.198 20.1333 287.398 17.8C289.631 15.4333 292.648 14.25 296.448 14.25C300.314 14.25 303.231 15.5667 305.198 18.2C307.198 20.8333 308.198 24.0833 308.198 27.95H291.798C292.031 30.4167 292.914 32.55 294.448 34.35C295.981 36.1167 297.948 37 300.348 37C302.148 37 304.081 36.6167 306.148 35.85L307.198 38.7C304.098 40.0667 301.064 40.75 298.098 40.75C293.798 40.75 290.381 39.5 287.848 37C285.348 34.4667 284.098 31.2 284.098 27.2ZM291.798 24.85L300.248 24.3C300.248 23.5 300.198 22.7667 300.098 22.1C299.998 21.4 299.714 20.5667 299.248 19.6C298.414 18.2 297.431 17.5 296.298 17.5C294.964 17.5 293.864 18.1833 292.998 19.55C292.498 20.3833 292.164 21.3 291.998 22.3C291.831 23.3 291.764 24.15 291.798 24.85ZM323.177 38.4V29.2H325.977L328.527 36.2C329.927 36.7 331.677 36.95 333.777 36.95C336.043 36.95 337.993 36.55 339.627 35.75C341.293 34.95 342.127 33.7667 342.127 32.2C342.127 31.8333 342.077 31.4833 341.977 31.15C341.91 30.8167 341.777 30.5 341.577 30.2C341.377 29.9 341.177 29.6333 340.977 29.4C340.777 29.1333 340.477 28.8667 340.077 28.6C339.677 28.3 339.327 28.0667 339.027 27.9C338.727 27.7 338.277 27.45 337.677 27.15C337.11 26.85 336.093 26.35 334.627 25.65L332.827 24.8C329.527 23.2 327.16 21.5333 325.727 19.8C324.293 18.0333 323.577 15.8667 323.577 13.3C323.577 10.5667 324.71 8.38333 326.977 6.75C329.243 5.08333 332.177 4.25 335.777 4.25C339.81 4.25 343.443 4.76667 346.677 5.8V15H343.877L341.427 8.3C340.06 8 338.743 7.85 337.477 7.85C335.51 7.85 333.827 8.2 332.427 8.9C331.027 9.56666 330.327 10.55 330.327 11.85C330.327 13.0167 330.877 14 331.977 14.8C333.11 15.5667 335.11 16.5833 337.977 17.85L338.977 18.3C342.377 19.8333 344.877 21.5333 346.477 23.4C348.077 25.2667 348.877 27.5333 348.877 30.2C348.877 32.7 348.243 34.75 346.977 36.35C345.743 37.9167 344.11 39.05 342.077 39.75C340.043 40.4167 337.727 40.75 335.127 40.75C330.993 40.75 327.01 39.9667 323.177 38.4ZM352.354 33.8C352.354 30.9 353.537 28.7 355.904 27.2C358.304 25.6667 362.17 24.9 367.504 24.9V23.4C367.504 22.4 367.487 21.6833 367.454 21.25C367.454 20.7833 367.387 20.2333 367.254 19.6C367.12 18.9667 366.92 18.5167 366.654 18.25C366.42 17.9833 366.054 17.75 365.554 17.55C365.054 17.3167 364.437 17.2 363.704 17.2L357.354 22.7C355.087 21.4 353.954 19.3833 353.954 16.65L355.454 16C356.087 15.7333 357.32 15.3833 359.154 14.95C360.987 14.4833 362.77 14.25 364.504 14.25C371.67 14.25 375.254 17.1167 375.254 22.85V36.25H379.154V38.4C378.987 38.5667 378.754 38.7833 378.454 39.05C378.154 39.3167 377.504 39.6667 376.504 40.1C375.504 40.5333 374.47 40.75 373.404 40.75C370.87 40.75 368.987 39.9 367.754 38.2C365.52 39.9 363.087 40.75 360.454 40.75C358.154 40.75 356.22 40.1667 354.654 39C353.12 37.8333 352.354 36.1 352.354 33.8ZM360.404 33.35C360.404 34.3167 360.72 35.0833 361.354 35.65C362.02 36.2167 362.82 36.5 363.754 36.5C365.254 36.5 366.504 35.95 367.504 34.85V28C365.637 28 363.987 28.5 362.554 29.5C361.12 30.4667 360.404 31.75 360.404 33.35ZM378.338 17.65V15H393.788V17.65L390.488 18.25L396.938 31.1L401.638 18.6L397.838 17.65V15H409.438V17.65L405.288 18.8L391.338 54.95H390.438C389.438 54.95 388.488 54.7333 387.588 54.3C386.721 53.8667 386.105 53.3333 385.738 52.7L392.988 41.15L382.088 18.7L378.338 17.65ZM0.5 105V102.2L5.4 101.05L17.35 69.75H21.7L32.9 101.05L37.7 102.2V105H20.75V102.2L24.3 101.35L22.15 95.35H11.65L9.4 101.2L13.6 102.2V105H0.5ZM13 91.9H20.9L17 81.25L13 91.9ZM36.7211 69.55V66.9L44.7211 65H48.6711V81.8C50.7378 80.1 53.1378 79.25 55.8711 79.25C58.9711 79.25 61.4711 80.2833 63.3711 82.35C65.3044 84.3833 66.2711 87.45 66.2711 91.55C66.2711 94.5833 65.4878 97.2 63.9211 99.4C62.3878 101.6 60.4711 103.217 58.1711 104.25C55.9044 105.25 53.4544 105.75 50.8211 105.75C47.0211 105.75 43.7378 104.9 40.9711 103.2V69.55H36.7211ZM48.6711 102.35C49.0711 102.417 49.6378 102.45 50.3711 102.45C52.6378 102.45 54.5211 101.533 56.0211 99.7C57.5544 97.8667 58.3211 95.2167 58.3211 91.75C58.3211 86.25 56.6378 83.5 53.2711 83.5C51.9711 83.5 50.4378 84 48.6711 85V102.35ZM83.191 105.75C81.291 105.75 79.5077 105.417 77.841 104.75C76.2077 104.083 74.791 103.167 73.591 102C72.391 100.833 71.441 99.4333 70.741 97.8C70.041 96.1667 69.691 94.3833 69.691 92.45C69.691 90.5167 70.041 88.75 70.741 87.15C71.441 85.5167 72.391 84.1167 73.591 82.95C74.791 81.7833 76.2077 80.8833 77.841 80.25C79.5077 79.5833 81.291 79.25 83.191 79.25C85.091 79.25 86.8577 79.5833 88.491 80.25C90.1244 80.8833 91.541 81.7833 92.741 82.95C93.9743 84.1167 94.9243 85.5167 95.591 87.15C96.291 88.75 96.641 90.5167 96.641 92.45C96.641 94.35 96.291 96.1167 95.591 97.75C94.9243 99.3833 93.9743 100.8 92.741 102C91.541 103.167 90.1244 104.083 88.491 104.75C86.8577 105.417 85.091 105.75 83.191 105.75ZM77.741 92.45C77.741 95.5833 78.191 98.05 79.091 99.85C80.0243 101.617 81.391 102.5 83.191 102.5C84.991 102.5 86.341 101.617 87.241 99.85C88.1744 98.05 88.641 95.5833 88.641 92.45C88.641 89.35 88.1744 86.9167 87.241 85.15C86.341 83.3833 84.991 82.5 83.191 82.5C81.391 82.5 80.0243 83.3833 79.091 85.15C78.191 86.9167 77.741 89.35 77.741 92.45ZM98.5691 82.65V80H110.519V97.25C110.519 98.95 110.719 100.133 111.119 100.8C111.552 101.433 112.402 101.75 113.669 101.75C114.636 101.75 115.636 101.5 116.669 101C117.702 100.5 118.536 99.8333 119.169 99V83.65L115.919 82.65V80H126.919V101.25H130.819V103.4C130.086 103.9 129.486 104.267 129.019 104.5C128.586 104.7 128.086 104.9 127.519 105.1C126.986 105.333 126.419 105.5 125.819 105.6C125.252 105.7 124.719 105.75 124.219 105.75C121.819 105.75 120.136 104.667 119.169 102.5C116.802 104.667 113.902 105.75 110.469 105.75C105.369 105.75 102.819 103.133 102.819 97.9V83.65L98.5691 82.65ZM132.869 83.5V81.5L141.369 75.45H143.219V80.25L149.419 80V83.5H143.219V97.8C143.219 99.4333 143.402 100.583 143.769 101.25C144.135 101.917 144.885 102.25 146.019 102.25C146.852 102.25 147.969 101.95 149.369 101.35L150.169 104.15C148.169 105.217 146.052 105.75 143.819 105.75C138.285 105.75 135.519 103.183 135.519 98.05V83.5H132.869ZM161.748 72.8V70H179.098V72.8L174.498 73.9V91.9C174.498 98.3 177.148 101.5 182.448 101.5C185.048 101.5 187.131 100.7 188.698 99.1C190.298 97.4667 191.098 95.0667 191.098 91.9V73.9L186.498 72.8V70H199.798V72.8L195.198 73.9V91.9C195.198 96.3667 193.848 99.8 191.148 102.2C188.481 104.567 185.098 105.75 180.998 105.75C176.731 105.75 173.215 104.567 170.448 102.2C167.715 99.8 166.348 96.3667 166.348 91.9V73.9L161.748 72.8ZM200.952 104.6V97.45H203.752L205.552 102.4C206.752 102.467 207.702 102.5 208.402 102.5C212.302 102.5 214.252 101.65 214.252 99.95C214.252 99.25 213.902 98.65 213.202 98.15C212.502 97.6167 211.835 97.2 211.202 96.9C210.568 96.6 209.368 96.0667 207.602 95.3C205.302 94.3 203.618 93.1667 202.552 91.9C201.518 90.6 201.002 88.9333 201.002 86.9C201.002 84.4 202.002 82.5 204.002 81.2C206.035 79.9 208.685 79.25 211.952 79.25C214.918 79.25 217.468 79.5667 219.602 80.2V87H217.002L215.452 82.6C214.452 82.4333 213.452 82.35 212.452 82.35C209.252 82.35 207.652 83.1333 207.652 84.7C207.652 85.1 207.802 85.5167 208.102 85.95C208.402 86.3833 208.935 86.8167 209.702 87.25C210.502 87.6833 211.752 88.2667 213.452 89C216.485 90.3667 218.535 91.7 219.602 93C220.668 94.2667 221.202 95.9833 221.202 98.15C221.202 100.617 220.185 102.5 218.152 103.8C216.118 105.1 213.418 105.75 210.052 105.75C206.885 105.75 203.852 105.367 200.952 104.6ZM224.974 101.85C224.974 100.717 225.39 99.7333 226.224 98.9C227.09 98.0333 228.107 97.6 229.274 97.6C230.44 97.6 231.44 98.0167 232.274 98.85C233.107 99.6833 233.524 100.683 233.524 101.85C233.524 102.95 233.107 103.95 232.274 104.85C231.44 105.717 230.44 106.15 229.274 106.15C228.107 106.15 227.09 105.717 226.224 104.85C225.39 103.95 224.974 102.95 224.974 101.85Z" fill="#14183E"/>
</svg>
